<svg xmlns="http://www.w3.org/2000/svg" width="40" height="40" viewBox="0 0 40 40"><g><g><g opacity=".08"><path fill="#fff" d="M0 20C0 8.954 8.954 0 20 0s20 8.954 20 20-8.954 20-20 20S0 31.046 0 20z"/></g><g><g><path d="M20 4.25C11.302 4.25 4.25 11.302 4.25 20S11.302 35.75 20 35.75 35.75 28.698 35.75 20 28.698 4.25 20 4.25z"/></g><g><path fill="#fff" d="M23.28 28.664a54.05 54.05 0 0 1-1.942.73c-.484.166-1.042.25-1.682.25-.98 0-1.745-.24-2.292-.72-.541-.473-.812-1.083-.812-1.822 0-.287.02-.578.062-.875.037-.302.104-.636.193-1.016l1.016-3.583c.088-.344.166-.667.229-.974a4.23 4.23 0 0 0 .088-.844c0-.453-.094-.776-.281-.953-.193-.182-.552-.271-1.083-.271-.26 0-.532.042-.808.12-.276.083-.51.161-.708.234l.27-1.104c.662-.27 1.298-.5 1.907-.693a5.693 5.693 0 0 1 1.719-.291c.974 0 1.729.24 2.255.708.526.469.792 1.083.792 1.833 0 .157-.016.433-.052.823-.037.39-.105.75-.203 1.084l-1.01 3.572c-.084.287-.157.615-.225.98a5.4 5.4 0 0 0-.094.833c0 .474.105.802.318.974.208.172.578.255 1.104.255.245 0 .521-.041.834-.125.307-.088.53-.161.671-.229zm-.173-14.505c-.47.437-1.039.656-1.701.656a2.444 2.444 0 0 1-1.712-.656c-.475-.438-.71-.969-.71-1.589s.24-1.156.71-1.599a2.426 2.426 0 0 1 1.712-.661c.662 0 1.231.219 1.701.661.475.443.71.98.71 1.6 0 .62-.235 1.15-.71 1.588z"/></g></g></g></g></svg>