<svg xmlns="http://www.w3.org/2000/svg" width="40" height="40" viewBox="0 0 40 40"><g><g><g><g><path fill="#ede7f6" d="M0 20C0 8.954 8.954 0 20 0s20 8.954 20 20-8.954 20-20 20S0 31.046 0 20z"/></g><g><g><path fill="none" stroke="#7c4dff" stroke-linecap="round" stroke-linejoin="round" stroke-miterlimit="50" stroke-width="2" d="M14 17v0-7 0h12v7"/></g><g><path fill="none" stroke="#7c4dff" stroke-linecap="round" stroke-linejoin="round" stroke-miterlimit="50" stroke-width="2" d="M14 26v0h-2a2 2 0 0 1-2-2v-5a2 2 0 0 1 2-2h16a2 2 0 0 1 2 2v5a2 2 0 0 1-2 2h-2v0"/></g><g><path fill="none" stroke="#7c4dff" stroke-linecap="round" stroke-linejoin="round" stroke-miterlimit="50" stroke-width="2" d="M14 22v0h12v8H14v0z"/></g></g></g></g></g></svg>