<svg xmlns="http://www.w3.org/2000/svg" width="40" height="40" viewBox="0 0 40 40"><g><g><g><g><path fill="#eceff1" d="M0 20C0 8.954 8.954 0 20 0s20 8.954 20 20-8.954 20-20 20S0 31.046 0 20z"/></g><g><g><path fill="none" stroke="#263238" stroke-linecap="round" stroke-linejoin="round" stroke-miterlimit="50" stroke-width="2" d="M22.12 22.12a3 3 0 1 1-4.24-4.24m10.96 5.31A18.5 18.5 0 0 0 31 20s-4-8-11-8a9.119 9.119 0 0 0-2.1.24m-3.84 1.82A18.45 18.45 0 0 0 9 20s4 8 11 8a10.07 10.07 0 0 0 5.94-2.06"/></g><g><path fill="none" stroke="#263238" stroke-linecap="round" stroke-linejoin="round" stroke-miterlimit="50" stroke-width="2" d="M9 9l22 22"/></g></g></g></g></g></svg>