<svg xmlns="http://www.w3.org/2000/svg" width="24" height="24" viewBox="0 0 24 24"><g><g><g><path fill="#282c33" d="M12 24c6.627 0 12-5.373 12-12S18.627 0 12 0 0 5.373 0 12s5.373 12 12 12z"/></g><g><path fill="#fff" d="M15.642 13.914a1.226 1.226 0 0 1 0 1.733c-.239.238-.55.355-.863.355-.318 0-.63-.117-.87-.355L12 13.73l-1.91 1.916c-.238.238-.55.355-.869.355-.312 0-.624-.117-.863-.355a1.226 1.226 0 0 1 0-1.733l1.91-1.91-1.91-1.915a1.22 1.22 0 0 1 0-1.726 1.216 1.216 0 0 1 1.732 0l1.91 1.91 1.91-1.91a1.216 1.216 0 0 1 1.732 0 1.22 1.22 0 0 1 0 1.726l-1.91 1.916z"/></g></g></g></svg>