<svg xmlns="http://www.w3.org/2000/svg" width="18" height="20" viewBox="0 0 18 20"><g><g><path fill="#2061d1" d="M17.01 4.21a2.127 2.127 0 0 1 1.072 1.847v7.745c0 .761-.408 1.468-1.072 1.847l-6.809 3.889a2.123 2.123 0 0 1-2.11 0l-6.809-3.89A2.127 2.127 0 0 1 .21 13.803V6.057c0-.762.409-1.468 1.072-1.847L8.091.32a2.123 2.123 0 0 1 2.11 0zm-1.591 2.136a.856.856 0 0 0-1.162-.319l-5.11 2.92-5.111-2.92a.856.856 0 0 0-1.162.319.854.854 0 0 0 .319 1.16l5.102 2.913v5.825c0 .467.383.85.851.85a.853.853 0 0 0 .851-.85v-5.825L15.1 7.507a.854.854 0 0 0 .32-1.161z"/></g></g></svg>