<svg xmlns="http://www.w3.org/2000/svg" width="30" height="30" viewBox="0 0 30 30"><g><g><g><path fill="#e2ebfb" d="M0 15C0 6.716 6.716 0 15 0c8.284 0 15 6.716 15 15 0 8.284-6.716 15-15 15-8.284 0-15-6.716-15-15z"/></g><g><g/><g><g><path fill="#2061d1" d="M23.565 14.132l-6.301-5.09c-.678-.548-1.689-.064-1.689.807v3.714L9.98 9.043c-.678-.549-1.689-.065-1.689.806v10.179c0 .871 1.011 1.355 1.689.807l5.596-4.521v3.714c0 .871 1.011 1.355 1.689.807l6.3-5.09a1.037 1.037 0 0 0 0-1.613"/></g></g></g></g></g></svg>