<svg xmlns="http://www.w3.org/2000/svg" width="30" height="30" viewBox="0 0 30 30"><g><g><g><path fill="#2061d1" d="M0 15C0 6.716 6.716 0 15 0c8.284 0 15 6.716 15 15 0 8.284-6.716 15-15 15-8.284 0-15-6.716-15-15z"/></g><g><g><path fill="#fff" d="M9.405 20.168a4.325 4.325 0 0 1 1.275-3.078l5.57-5.569 2.23 2.23-5.57 5.57a4.325 4.325 0 0 1-3.078 1.275h-.427zm-1.245 1.05a.622.622 0 0 0 .622.623h1.05a5.562 5.562 0 0 0 3.96-1.64l7.231-7.227a2.827 2.827 0 0 0-3.996-3.997L9.799 16.21a5.562 5.562 0 0 0-1.639 3.96z"/></g></g></g></g></svg>