<svg xmlns="http://www.w3.org/2000/svg" width="30" height="30" viewBox="0 0 30 30"><defs><clipPath id="lu2ma"><path fill="#fff" d="M0 15C0 6.716 6.716 0 15 0c8.284 0 15 6.716 15 15 0 8.284-6.716 15-15 15-8.284 0-15-6.716-15-15z"/></clipPath></defs><g><g><g><path fill="#fff" d="M0 15C0 6.716 6.716 0 15 0c8.284 0 15 6.716 15 15 0 8.284-6.716 15-15 15-8.284 0-15-6.716-15-15z"/><path fill="none" stroke="#2061d1" stroke-miterlimit="50" stroke-width="3" d="M0 15C0 6.716 6.716 0 15 0h0c8.284 0 15 6.716 15 15v0c0 8.284-6.716 15-15 15h0C6.716 30 0 23.284 0 15z" clip-path="url(&quot;#lu2ma&quot;)"/></g><g><g transform="rotate(130 19.5 9.5)"><path fill="#2061d1" d="M17.773 13.31L17.14 9.6c-.179-.315-1.118-2.022-.974-2.91.173-1.071 1.853-3.16 2.997-3.16 1.143 0 2.823 2.089 2.996 3.16.144.89-.795 2.595-.974 2.91l-.632 3.7c-.334 1.504-.788 2.23-1.39 2.23-.603 0-1.057-.726-1.389-2.22z"/></g><g transform="rotate(-130 13.5 20.5)"><path fill="#2061d1" d="M11.773 16.75l-.634 3.71c-.179.315-1.118 2.022-.974 2.91.173 1.071 1.853 3.16 2.997 3.16 1.143 0 2.823-2.089 2.996-3.16.144-.89-.795-2.596-.974-2.91l-.632-3.7c-.334-1.504-.788-2.23-1.39-2.23-.603 0-1.057.726-1.389 2.22z"/></g></g></g></g></svg>