<svg xmlns="http://www.w3.org/2000/svg" width="30" height="30" viewBox="0 0 30 30"><g><g><g><path fill="#2061d1" d="M0 15C0 6.716 6.716 0 15 0c8.284 0 15 6.716 15 15 0 8.284-6.716 15-15 15-8.284 0-15-6.716-15-15z"/></g><g><g><path fill="#fff" d="M19.4 21h1.2c.497 0 .9-.447.9-1v-7c0-.553-.403-1-.9-1h-1.2c-.497 0-.9.447-.9 1v7c0 .553.403 1 .9 1"/></g><g><path fill="#fff" d="M14.4 21h1.2c.497 0 .9-.383.9-.857V9.857c0-.474-.403-.857-.9-.857h-1.2c-.497 0-.9.383-.9.857v10.286c0 .474.403.857.9.857"/></g><g><path fill="#fff" d="M9.4 21h1.2c.497 0 .9-.473.9-1.059V16.06c0-.586-.403-1.059-.9-1.059H9.4c-.497 0-.9.473-.9 1.059v3.882c0 .586.403 1.059.9 1.059"/></g></g></g></g></svg>