<svg xmlns="http://www.w3.org/2000/svg" width="18" height="20" viewBox="0 0 18 20"><g><g><g/><g><g><path fill="#fff" d="M15.442 5.038c1.127 0 2.04.914 2.04 2.04v4.082c0 1.127-.913 2.041-2.04 2.041v4.082a2.45 2.45 0 0 1-2.449 2.449H4.83a2.45 2.45 0 0 1-2.45-2.45v-4.08A2.042 2.042 0 0 1 .34 11.16V7.08c0-1.127.914-2.041 2.04-2.041V2.589A2.45 2.45 0 0 1 4.83.14h8.163a2.45 2.45 0 0 1 2.449 2.449zm-11.018 0h8.975V2.589a.409.409 0 0 0-.408-.408H4.832a.409.409 0 0 0-.408.408zm8.975 4.082H4.424v8.163c0 .225.184.408.408.408h8.159a.409.409 0 0 0 .408-.408z"/></g><g><path fill="#fff" d="M9.327 15.643h-2.04a.817.817 0 0 1 0-1.633h2.04c.453 0 .816.366.816.816a.815.815 0 0 1-.816.817"/></g><g><path fill="#fff" d="M10.552 12.793H7.286a.817.817 0 0 1 0-1.633h3.266c.453 0 .816.366.816.816a.815.815 0 0 1-.816.817"/></g></g></g></g></svg>