<svg xmlns="http://www.w3.org/2000/svg" width="40" height="40" viewBox="0 0 40 40"><defs><clipPath id="73i6a"><path fill="#fff" d="M21 17V5h12v12zm6-2a4 4 0 1 0 0-8 4 4 0 0 0 0 8z"/></clipPath></defs><g><g><g opacity=".08"><path fill="#fff" d="M0 20C0 8.954 8.954 0 20 0s20 8.954 20 20-8.954 20-20 20S0 31.046 0 20z"/></g><g><g/><g><g><path fill="none" stroke="#fff" stroke-linecap="round" stroke-linejoin="round" stroke-miterlimit="50" stroke-width="2" d="M18.443 28.1a1.807 1.807 0 0 0 3.124 0zM29 24.5a2.7 2.7 0 0 1-2.7-2.7v-4.5a6.3 6.3 0 0 0-12.6 0v4.5a2.7 2.7 0 0 1-2.7 2.7zm0 0s0 0 0 0z"/></g></g><g><path fill="#f85" d="M27 15a4 4 0 1 0 0-8 4 4 0 0 0 0 8z"/><path fill="none" stroke="#292b2e" stroke-linecap="round" stroke-linejoin="round" stroke-miterlimit="50" stroke-width="4" d="M27 15a4 4 0 1 0 0-8 4 4 0 0 0 0 8z" clip-path="url(&quot;#73i6a&quot;)"/></g></g></g></g></svg>