<svg xmlns="http://www.w3.org/2000/svg" width="22" height="22" viewBox="0 0 22 22"><defs><clipPath id="cv2ea"><path d="M4.183 10.535c-.013.011-.022.025-.034.037L2.671 4.86c1.1.28 2.061 1.133 2.418 2.19.4 1.194.028 2.628-.906 3.486zm9.348-6.162c-.64-.221-1.023-.79-1.468-1.446-.467-.692-.997-1.476-1.927-1.886-1.95-.86-4.21.237-5.86 1.037-.192.093-.378.183-.555.267-1.064.5-1.54.57-1.704.575L1.34.494a.684.684 0 0 0-.838-.47.668.668 0 0 0-.479.822l2.86 10.285.23.887.048.109 2.61 9.38a.68.68 0 0 0 .837.47.668.668 0 0 0 .479-.823l-2.347-8.436c1.669-1.128 4.391-2.671 5.665-2.671.028 0 .057 0 .084.003.313.018.345.055.496.57.395 1.355 1.173 2.044 3.831 1.302 4.511-1.26 6.64-7.158 6.73-7.409L22 3.23l-1.314.43c-1.485.486-5.348 1.34-7.155.714z"/></clipPath></defs><g><g><g><g/><g/><g clip-path="url(#cv2ea)"><path fill="#2061d1" d="M0 0h22v22H0z"/></g></g></g></g></svg>