<?xml version="1.0" encoding="utf-8"?>
<!-- Generator: Adobe Illustrator 23.1.0, SVG Export Plug-In . SVG Version: 6.00 Build 0)  -->
<svg version="1.1" id="Calque_1" xmlns="http://www.w3.org/2000/svg" xmlns:xlink="http://www.w3.org/1999/xlink" x="0px" y="0px"
	 viewBox="0 0 216.3 260.3" style="enable-background:new 0 0 216.3 260.3;" xml:space="preserve">
<style type="text/css">
	.st0{fill-rule:evenodd;clip-rule:evenodd;fill:#20386D;}
	.st1{fill-rule:evenodd;clip-rule:evenodd;fill:#6FB2E2;}
	.st2{fill-rule:evenodd;clip-rule:evenodd;fill:#94C8EE;}
	.st3{fill-rule:evenodd;clip-rule:evenodd;fill:#559FD7;}
	.st4{fill-rule:evenodd;clip-rule:evenodd;fill:#3C81C3;}
	.st5{fill-rule:evenodd;clip-rule:evenodd;fill:#2864AE;}
	.st6{fill-rule:evenodd;clip-rule:evenodd;fill:#2F72B9;}
	.st7{fill-rule:evenodd;clip-rule:evenodd;fill:#438ECC;}
	.st8{fill-rule:evenodd;clip-rule:evenodd;fill:#144390;}
	.st9{fill-rule:evenodd;clip-rule:evenodd;fill:#1D3E7B;}
	.st10{fill-rule:evenodd;clip-rule:evenodd;fill:#223465;}
	.st11{fill-rule:evenodd;clip-rule:evenodd;fill:#19499A;}
	.st12{fill-rule:evenodd;clip-rule:evenodd;fill:#2757A4;}
	.st13{fill-rule:evenodd;clip-rule:evenodd;fill:#BDDEF6;}
</style>
<polygon class="st0" points="92.6,223.4 102.7,205.8 112.9,188.2 92.6,183 72.3,188.2 77.8,208.6 "/>
<polygon class="st1" points="173.9,82.6 163.7,100.2 153.6,117.8 173.9,117.8 194.2,117.8 184,100.2 "/>
<polygon class="st1" points="133.2,82.6 123.1,100.2 112.9,117.8 133.2,124.6 153.6,117.8 143.4,100.2 "/>
<polygon class="st2" points="153.6,117.8 143.4,100.2 133.2,82.6 153.6,82.6 173.9,82.6 163.7,100.2 "/>
<polygon class="st3" points="173.9,153 163.7,135.4 153.6,117.8 173.9,117.8 194.2,117.8 188.9,138.2 "/>
<polygon class="st1" points="194.2,117.8 184,135.4 173.9,153 194.2,153 214.5,153 204.4,135.4 "/>
<polygon class="st4" points="194.2,188.2 181.4,172.1 173.9,153 194.2,153 214.5,153 204.4,170.6 "/>
<polygon class="st5" points="153.6,188.2 141,172 133.2,153 153.6,149.8 173.9,153 165.8,171.8 "/>
<polygon class="st6" points="173.9,153 163.7,170.6 153.6,188.2 154,188.9 173.9,191.2 194.2,188.2 184,170.6 "/>
<polygon class="st7" points="153.6,117.8 138.6,129.8 133.2,153 153.6,153 173.9,153 163.7,135.4 "/>
<polygon class="st4" points="133.2,153 118.7,137.8 112.9,117.8 133.2,117.8 153.6,117.8 143.4,135.4 "/>
<polygon class="st8" points="173.9,223.4 161.6,207.9 153.6,188.2 173.9,188.2 194.2,188.2 184,205.8 "/>
<polygon class="st9" points="153.6,188.2 139.5,203.5 133.2,223.4 153.6,226.1 173.9,223.4 163.7,205.8 "/>
<polygon class="st10" points="153.6,258.6 143.4,241 133.2,223.4 153.6,223.4 173.9,223.4 163.7,241 "/>
<polygon class="st0" points="133.2,223.4 123.1,205.8 112.9,188.2 133.2,183 153.6,188.2 143.4,205.8 "/>
<polygon class="st11" points="133.2,153 119.3,167.8 112.9,188.2 133.2,188.2 153.6,188.2 143.4,170.6 "/>
<polygon class="st6" points="112.9,117.8 123.1,135.4 133.2,153 113.1,157.2 92.6,153 97.5,132 "/>
<polygon class="st12" points="112.9,188.2 123.1,170.6 133.2,153 112.9,153 92.6,153 95.9,175.6 "/>
<polygon class="st1" points="92.6,82.6 102.7,100.2 112.9,117.8 92.6,124.6 72.3,117.8 82.4,100.2 "/>
<polygon class="st3" points="46.1,28.1 39.2,16.2 53,16.2 "/>
<polygon class="st2" points="14.7,23.2 20.9,12.4 27.2,23.2 "/>
<polygon class="st7" points="12.2,32.1 7.2,40.7 2.3,32.1 "/>
<polygon class="st13" points="6.2,1.7 12.6,5.4 6.2,9.1 "/>
<polygon class="st2" points="36.4,2 32.2,9.3 27.9,2 "/>
<polygon class="st2" points="62.1,70.8 73.7,50.7 85.6,71.4 61.8,71.4 "/>
<polygon class="st3" points="22.5,96.3 10.8,76.1 34.7,76.1 22.8,96.8 "/>
<polygon class="st1" points="44.6,67.3 33,47.1 56.8,47.1 44.9,67.8 "/>
<polygon class="st3" points="62.3,40.8 55.8,29.5 69.2,29.5 62.5,41.1 "/>
<polygon class="st1" points="16.9,53.4 7.7,62.6 20.6,66 17.1,53.1 "/>
<polygon class="st3" points="33,28.3 23.8,37.5 36.7,41 33.3,28.1 "/>
<polygon class="st1" points="51.9,82.6 62.1,100.2 72.3,117.8 51.9,117.8 31.6,117.8 41.8,100.2 "/>
<polygon class="st2" points="72.3,117.8 82.4,100.2 92.6,82.6 72.3,82.6 51.9,82.6 62.1,100.2 "/>
<polygon class="st3" points="51.9,153 62.1,135.4 72.3,117.8 51.9,117.8 31.6,117.8 "/>
<polygon class="st1" points="31.6,117.8 41.8,135.4 51.9,153 31.6,153 11.3,153 21.5,135.4 "/>
<polygon class="st4" points="31.6,188.2 44.4,172.1 51.9,153 31.6,153 11.3,153 21.5,170.6 "/>
<polygon class="st5" points="72.3,188.2 84.9,172 92.6,153 72.3,149.8 51.9,153 60,171.8 "/>
<polygon class="st6" points="51.9,153 62.1,170.6 72.3,188.2 71.8,188.9 51.9,191.2 31.6,188.2 41.8,170.6 "/>
<polygon class="st7" points="72.3,117.8 87.2,129.8 92.6,153 72.3,153 51.9,153 62.1,135.4 "/>
<polygon class="st4" points="92.6,153 112.9,117.8 92.6,117.8 72.3,117.8 82.4,135.4 "/>
<polygon class="st11" points="92.6,153 112.9,188.2 92.6,188.2 72.3,188.2 82.4,170.6 "/>
<polygon class="st8" points="51.9,223.4 64.3,207.9 72.3,188.2 51.9,188.2 31.6,188.2 41.8,205.8 "/>
<polygon class="st9" points="72.3,188.2 92.6,223.4 72.3,226.1 51.9,223.4 62.1,205.8 "/>
<polygon class="st10" points="72.3,258.6 82.4,241 92.6,223.4 72.3,223.4 51.9,223.4 62.1,241 "/>
</svg>
