<?xml version="1.0" encoding="utf-8"?>
<!-- Generator: Adobe Illustrator 23.1.0, SVG Export Plug-In . SVG Version: 6.00 Build 0)  -->
<svg version="1.1" id="Calque_1" xmlns="http://www.w3.org/2000/svg" xmlns:xlink="http://www.w3.org/1999/xlink" x="0px" y="0px"
	 viewBox="0 0 234.6 241.3" style="enable-background:new 0 0 234.6 241.3;" xml:space="preserve">
<style type="text/css">
	.st0{fill:none;stroke:#D5D8DD;stroke-width:15;stroke-miterlimit:10;}
	.st1{fill:#D5D8DD;}
</style>
<circle class="st0" cx="115.4" cy="85.5" r="39.8"/>
<g>
	<g>
		<path class="st1" d="M50,197.4c0-3.7,0-7.3,0-11c0-3.9-0.3-8,0.2-11.9c-0.1,0.7-0.2,1.3-0.3,2c0.3-2.3,1-4.6,1.9-6.8
			c-0.3,0.6-0.5,1.2-0.8,1.8c0.7-1.5,1.4-3,2.4-4.4c0.1-0.2,0.6-1,0.8-1.1c-0.3,0.1-1.3,1.6-0.4,0.5c0.5-0.6,1.1-1.2,1.7-1.8
			c0.6-0.6,1.2-1.1,1.8-1.7c0.5-0.4,1.5-1-0.5,0.4c0.4-0.2,0.7-0.5,1.1-0.8c1.4-0.9,2.8-1.7,4.4-2.4c-0.6,0.3-1.2,0.5-1.8,0.8
			c2.2-0.9,4.5-1.5,6.8-1.9c-0.7,0.1-1.3,0.2-2,0.3c3.8-0.5,7.8-0.2,11.7-0.2c7.5,0,15,0,22.5,0c9.2,0,18.4,0,27.6,0
			c7.9,0,15.8,0,23.7,0c3.5,0,6.9,0,10.4,0c1.2,0,2.3,0.1,3.5,0.2c-0.7-0.1-1.3-0.2-2-0.3c2.3,0.3,4.6,1,6.8,1.9
			c-0.6-0.3-1.2-0.5-1.8-0.8c1.5,0.7,3,1.4,4.4,2.4c0.2,0.1,1,0.6,1.1,0.8c-0.1-0.3-1.6-1.3-0.5-0.4c0.6,0.5,1.2,1.1,1.8,1.7
			c0.6,0.6,1.1,1.2,1.7,1.8c0.4,0.5,1,1.5-0.4-0.5c0.2,0.4,0.5,0.7,0.8,1.1c0.9,1.4,1.7,2.8,2.4,4.4c-0.3-0.6-0.5-1.2-0.8-1.8
			c0.9,2.2,1.5,4.5,1.9,6.8c-0.1-0.7-0.2-1.3-0.3-2c0.5,3.9,0.2,8,0.2,11.9c0,3.7,0,7.3,0,11c0,3.9,3.4,7.7,7.5,7.5
			c4.1-0.2,7.5-3.3,7.5-7.5c0-6.2,0-12.4,0-18.6c0-5.6-1.2-10.9-3.6-16c-2.9-5.9-7.9-11.1-13.6-14.3c-5.1-2.9-10.8-4.4-16.7-4.4
			c-1,0-2,0-3,0c-5.4,0-10.8,0-16.2,0c-7.9,0-15.9,0-23.8,0c-8.2,0-16.5,0-24.7,0c-6.2,0-12.5,0-18.7,0c-4.5,0-8.8-0.1-13.2,0.8
			c-6.5,1.3-12.7,5-17.2,9.8c-5.1,5.5-8.1,12.2-9,19.7c-0.4,3-0.2,6-0.2,9c0,3.9,0,7.8,0,11.7c0,0.8,0,1.5,0,2.3
			c0,3.9,3.4,7.7,7.5,7.5C46.6,204.7,50,201.6,50,197.4L50,197.4z"/>
	</g>
</g>
</svg>
