<svg xmlns="http://www.w3.org/2000/svg" width="16" height="16" viewBox="0 0 16 16"><g><g><g/><g><g><path fill="#fff" d="M15.77 10.75L13.596 9.6l-4.243 2.243a2.723 2.723 0 0 1-1.272.317c-.439 0-.878-.11-1.269-.316L2.568 9.6.394 10.75a.442.442 0 0 0-.234.392c0 .166.09.318.233.392l6.892 3.643c.5.264 1.093.264 1.593 0l6.891-3.643a.442.442 0 0 0 .233-.392.445.445 0 0 0-.232-.393z"/></g><g><path fill="#fff" d="M.393 5.247l6.892 3.644a1.697 1.697 0 0 0 1.593-.001l6.89-3.642a.444.444 0 0 0 .234-.393.44.44 0 0 0-.233-.392L8.879.819a1.696 1.696 0 0 0-1.595 0L.393 4.462a.442.442 0 0 0-.233.393c0 .165.09.316.233.392z"/></g></g></g></g></svg>