<svg xmlns="http://www.w3.org/2000/svg" width="30" height="30" viewBox="0 0 30 30"><g><g><g><path fill="#e2ebfb" d="M0 15C0 6.716 6.716 0 15 0c8.284 0 15 6.716 15 15 0 8.284-6.716 15-15 15-8.284 0-15-6.716-15-15z"/></g><g><g><path fill="none" stroke="#9ebcf0" stroke-linejoin="round" stroke-miterlimit="50" d="M12 8v0l-4 4v10l4-4v0z"/></g><g><path fill="none" stroke="#9ebcf0" stroke-linejoin="round" stroke-miterlimit="50" d="M8 12v0h10v10H8v0z"/></g><g><path fill="none" stroke="#9ebcf0" stroke-linejoin="round" stroke-miterlimit="50" d="M22 8v0l-4 4v10l4-4v0z"/></g><g><path fill="#2061d1" fill-opacity=".56" d="M12 8h10v10H12z"/><path fill="none" stroke="#2061d1" stroke-linejoin="round" stroke-miterlimit="50" d="M12 8v0h10v10H12v0z"/></g></g></g></g></svg>