<svg xmlns="http://www.w3.org/2000/svg" width="30" height="30" viewBox="0 0 30 30"><defs><clipPath id="rblza"><path fill="#fff" d="M0 15C0 6.716 6.716 0 15 0c8.284 0 15 6.716 15 15 0 8.284-6.716 15-15 15-8.284 0-15-6.716-15-15z"/></clipPath></defs><g><g><g><path fill="#fff" d="M0 15C0 6.716 6.716 0 15 0c8.284 0 15 6.716 15 15 0 8.284-6.716 15-15 15-8.284 0-15-6.716-15-15z"/><path fill="none" stroke="#2061d1" stroke-miterlimit="50" stroke-width="3" d="M0 15C0 6.716 6.716 0 15 0h0c8.284 0 15 6.716 15 15v0c0 8.284-6.716 15-15 15h0C6.716 30 0 23.284 0 15z" clip-path="url(&quot;#rblza&quot;)"/></g><g><g><path fill="#2061d1" d="M21.47 14.081s-.799-1.941-1.366-2.795C18.698 9.166 16.901 8 15.044 8c-1.855 0-3.652 1.167-5.059 3.286C8.742 13.158 8 15.52 8 17.603c0 1.915.637 3.16 1.947 3.804 1.207.595 2.823.596 4.656.592h.884l.429.001c1.654 0 3.115-.045 4.227-.593.568-.28.857-.407 1.327-1.182.47-.776.535-1.342.53-2.851-.006-1.562-.53-3.293-.53-3.293z"/></g><g><path fill="#fff" d="M13.25 14.83a1 1 0 0 1 1-1h1.5a1 1 0 0 1 1 1v2.667a1 1 0 0 1-1 1h-1.5a1 1 0 0 1-1-1z"/></g></g></g></g></svg>