<svg xmlns="http://www.w3.org/2000/svg" width="30" height="30" viewBox="0 0 30 30"><g><g transform="matrix(-1 0 0 1 30 0)"><g><path fill="#2061d1" d="M0 15C0 6.716 6.716 0 15 0c8.284 0 15 6.716 15 15 0 8.284-6.716 15-15 15-8.284 0-15-6.716-15-15z"/></g><g><path fill="#fff" d="M24 19.728C24 12.698 19.97 7 15 7s-9 5.698-9 12.728C6 21 8 21 8 19.728 8 18 8.984 10 15 10c6.016-.001 7 8 7 9.728 0 1.272 2 1.272 2 0z"/></g><g><g/><g><g><path fill="#fff" d="M21.56 9.678C20.755 8.466 19.728 7.8 18.667 7.8c-1.06 0-2.087.667-2.891 1.878-.324.488-.704 1.597-.78 1.597-.08 0-.456-1.11-.78-1.597-.804-1.211-1.83-1.878-2.891-1.878s-2.088.667-2.892 1.878c-.71 1.07-1.134 2.42-1.134 3.61 0 1.094.364 1.805 1.112 2.173.69.34 1.614.34 2.661.339h.75c.946 0 1.78-.026 2.416-.339.324-.16.65-.676.758-.676.107 0 .434.517.758.676.69.34 1.614.34 2.66.339h.751c.945 0 1.78-.026 2.415-.339.75-.369 1.113-1.08 1.113-2.173 0-1.19-.424-2.54-1.135-3.61z"/></g><g><path fill="#e2ebfb" d="M20.167 16.072c-.554-.273-1.282-.273-2.11-.272h-.393c-.826-.001-1.555 0-2.11.272-.228.113-.464.452-.554.452-.091 0-.326-.34-.553-.452-.555-.273-1.283-.273-2.11-.272h-.394c-.826-.001-1.555 0-2.11.272-.614.303-.913.882-.913 1.769 0 .943.336 2.012.898 2.859.642.967 1.467 1.5 2.322 1.5s1.68-.533 2.322-1.5c.215-.323.447-1.047.538-1.047.08 0 .324.724.538 1.047.643.967 1.467 1.5 2.323 1.5.855 0 1.68-.533 2.322-1.5.562-.847.897-1.916.897-2.86 0-.886-.298-1.465-.913-1.768z"/></g></g></g></g></g></svg>