<svg xmlns="http://www.w3.org/2000/svg" width="30" height="30" viewBox="0 0 30 30"><defs><clipPath id="nlu2a"><path fill="#fff" d="M0 15C0 6.716 6.716 0 15 0c8.284 0 15 6.716 15 15 0 8.284-6.716 15-15 15-8.284 0-15-6.716-15-15z"/></clipPath></defs><g><g><g><path fill="#fff" d="M0 15C0 6.716 6.716 0 15 0c8.284 0 15 6.716 15 15 0 8.284-6.716 15-15 15-8.284 0-15-6.716-15-15z"/><path fill="none" stroke="#2061d1" stroke-miterlimit="50" stroke-width="3" d="M0 15C0 6.716 6.716 0 15 0h0c8.284 0 15 6.716 15 15v0c0 8.284-6.716 15-15 15h0C6.716 30 0 23.284 0 15z" clip-path="url(&quot;#nlu2a&quot;)"/></g><g><g/><g><g><path fill="#2061d1" d="M12.644 7.998l8.17 6.124a1.021 1.021 0 0 1 0 1.634l-8.17 6.128a1.022 1.022 0 0 1-1.634-.817V8.815c0-.845.96-1.325 1.634-.817"/></g></g></g></g></g></svg>