<?xml version="1.0" encoding="utf-8"?>
<!-- Generator: Adobe Illustrator 24.1.1, SVG Export Plug-In . SVG Version: 6.00 Build 0)  -->
<svg version="1.1" id="Calque_1" xmlns="http://www.w3.org/2000/svg" xmlns:xlink="http://www.w3.org/1999/xlink" x="0px" y="0px"
	 viewBox="0 0 824.6 833.8" style="enable-background:new 0 0 824.6 833.8;" xml:space="preserve">
<style type="text/css">
	.st0{fill:url(#SVGID_1_);}
	.st1{fill:url(#SVGID_2_);}
	.st2{fill:url(#SVGID_3_);}
	.st3{fill:url(#SVGID_4_);}
	.st4{fill:url(#SVGID_5_);}
	.st5{fill:url(#SVGID_6_);}
	.st6{fill:url(#SVGID_7_);}
	.st7{fill:url(#SVGID_8_);}
	.st8{fill:url(#SVGID_9_);}
	.st9{fill:url(#SVGID_10_);}
	.st10{fill:#650029;}
	.st11{fill:#FFFFFF;stroke:#1D1D1B;stroke-width:2;stroke-miterlimit:10;}
	.st12{fill:none;stroke:#1D1D1B;stroke-width:2;stroke-miterlimit:10;}
	.st13{fill:url(#SVGID_11_);}
	.st14{fill:url(#SVGID_12_);}
	.st15{fill:url(#SVGID_13_);}
	.st16{fill:url(#SVGID_14_);}
	.st17{fill:url(#SVGID_15_);}
	.st18{fill:url(#SVGID_16_);}
	.st19{fill:#FFFFFF;stroke:#1D1D1B;stroke-width:2;stroke-miterlimit:10.0002;}
	.st20{fill:url(#SVGID_17_);}
	.st21{fill:#FFFFFF;stroke:#000000;stroke-width:2;stroke-miterlimit:10;}
	.st22{opacity:0.1;fill:#009CE7;enable-background:new    ;}
	.st23{fill:url(#SVGID_18_);}
	.st24{fill:url(#SVGID_19_);}
	.st25{fill:url(#SVGID_20_);}
	.st26{opacity:3.000000e-02;fill:#009CE7;enable-background:new    ;}
	.st27{fill:url(#SVGID_21_);}
	.st28{fill:url(#SVGID_22_);stroke:#BDCCD4;stroke-width:10;stroke-miterlimit:10;}
	.st29{fill:url(#SVGID_23_);}
	.st30{fill:url(#SVGID_24_);}
	.st31{fill:url(#SVGID_25_);}
</style>
<g>
	
		<linearGradient id="SVGID_1_" gradientUnits="userSpaceOnUse" x1="-2431.8584" y1="8426.377" x2="-2348.3943" y2="8426.377" gradientTransform="matrix(-0.9957 -9.254824e-02 -9.254824e-02 0.9957 -833.8511 -8234.5537)">
		<stop  offset="0" style="stop-color:#EE9CA7"/>
		<stop  offset="1.909441e-02" style="stop-color:#F0A2AC"/>
		<stop  offset="0.1053" style="stop-color:#F5B8C0"/>
		<stop  offset="0.207" style="stop-color:#FAC9CF"/>
		<stop  offset="0.333" style="stop-color:#FDD4D9"/>
		<stop  offset="0.5096" style="stop-color:#FFDBDF"/>
		<stop  offset="1" style="stop-color:#FFDDE1"/>
	</linearGradient>
	<path class="st0" d="M760.7,450c1.1,5.9,9.4,44.4,25.4,42.1c16.7-2.5,13.7-36.4,13.5-38.2l0,0c-0.2-3.4-1.1-8-1.4-9.2l-27-160.4
		c-2.3-12.6-10.5-22-19.7-22.6c-1.1,0-2.5,0-3.7,0.2c-10.3,1.8-16.7,14.9-14.2,29.1"/>
</g>
<linearGradient id="SVGID_2_" gradientUnits="userSpaceOnUse" x1="-2405.0928" y1="8330.21" x2="-2328.4375" y2="8330.21" gradientTransform="matrix(-0.9957 -9.254824e-02 -9.254824e-02 0.9957 -833.8511 -8234.5537)">
	<stop  offset="0" style="stop-color:#F5F7FA"/>
	<stop  offset="0.6191" style="stop-color:#F3F6F9"/>
	<stop  offset="0.8418" style="stop-color:#ECF2F5"/>
	<stop  offset="0.986" style="stop-color:#E2EBF0"/>
</linearGradient>
<path class="st1" d="M733.9,340.4l-16.5-94.5c-2.5-15.1,6.9-29.3,21-31.8l0,0c14.2-2.5,27.9,7.8,30.4,22.9l16.5,94.5
	C771.2,342,754.5,346.2,733.9,340.4z"/>
<linearGradient id="SVGID_3_" gradientUnits="userSpaceOnUse" x1="-5143.6685" y1="5808.374" x2="-5066.6934" y2="5808.374" gradientTransform="matrix(-0.4972 -0.8676 -0.8676 0.4972 3106.2292 -6522.1401)">
	<stop  offset="0" style="stop-color:#F5F7FA"/>
	<stop  offset="0.6191" style="stop-color:#F3F6F9"/>
	<stop  offset="0.8418" style="stop-color:#ECF2F5"/>
	<stop  offset="0.986" style="stop-color:#E2EBF0"/>
</linearGradient>
<path class="st2" d="M639.4,768c2.3,5.5-19.9,5.9-19.9,5.9c-8.2,0.9-38,2.1-46.4,0.7c-22-3.7-22.6,19.7-10.1,31.3
	c6.4,6.2,37.3,21.3,62,19.9c18.1-1.1,22.9-26.3,25.8-30.9c0.5-0.9,0.7-1.8,0.2-2.7C647.4,784.7,637.1,763.4,639.4,768z"/>
<linearGradient id="SVGID_4_" gradientUnits="userSpaceOnUse" x1="-4421.7607" y1="3244.2407" x2="-4344.7295" y2="3244.2407" gradientTransform="matrix(0.1602 -0.9871 -0.9871 -0.1602 4615.8237 -3083.6885)">
	<stop  offset="0" style="stop-color:#F5F7FA"/>
	<stop  offset="0.6191" style="stop-color:#F3F6F9"/>
	<stop  offset="0.8418" style="stop-color:#ECF2F5"/>
	<stop  offset="0.986" style="stop-color:#E2EBF0"/>
</linearGradient>
<path class="st3" d="M748.3,723.4c-1.4,5.7-11.9-7.3-11.9-7.3c-7.1-4.3-30.9-22.2-36.6-28.6c-14.6-16.5-29.7,1.1-27.5,18.1
	c1.1,8.7,15.6,39.8,35.7,54.4c14.6,10.8,34.3-5.7,39.6-7.5c1.1-0.5,1.8-1.1,2.1-2.1C751.7,742.1,750.1,718.8,748.3,723.4z"/>
<linearGradient id="SVGID_5_" gradientUnits="userSpaceOnUse" x1="-1170.2212" y1="8810.6934" x2="-1117.7747" y2="8810.6934" gradientTransform="matrix(-1 0 0 1 -507.3413 -8152)">
	<stop  offset="0" style="stop-color:#2580C3"/>
	<stop  offset="0.3128" style="stop-color:#009EE2"/>
	<stop  offset="0.3547" style="stop-color:#00A0E2"/>
	<stop  offset="1" style="stop-color:#35A8E0"/>
</linearGradient>
<path class="st4" d="M619,795.2c-1.4-0.5-2.3-1.8-2.3-3.4l-6.2-251.4c0.2-12.6,12.1-22.6,26.5-22.4l0,0
	c14.4,0.2,26.1,10.5,25.8,23.1l-9.4,250.5c0,1.4-0.9,3-2.5,3.4C634.8,800.9,632.1,800.7,619,795.2z"/>
<linearGradient id="SVGID_6_" gradientUnits="userSpaceOnUse" x1="425.6914" y1="8776.9688" x2="474.0679" y2="8776.9688" gradientTransform="matrix(1 0 0 1 285.9267 -8152)">
	<stop  offset="0" style="stop-color:#2580C3"/>
	<stop  offset="0.3128" style="stop-color:#009EE2"/>
	<stop  offset="0.3547" style="stop-color:#00A0E2"/>
	<stop  offset="1" style="stop-color:#35A8E0"/>
</linearGradient>
<path class="st5" d="M719.2,750.8c-1.1-0.5-1.8-1.6-1.8-2.7l-5.7-232.4c0.2-11.4,11.2-20.8,24.5-20.6l0,0c13.3,0.2,24,9.8,23.8,21.3
	l-8.7,231.5c0,1.4-0.7,2.3-1.8,2.7C733.9,756.3,731.6,756.1,719.2,750.8z"/>
<linearGradient id="SVGID_7_" gradientUnits="userSpaceOnUse" x1="315.0722" y1="8539.1201" x2="481.7734" y2="8539.1201" gradientTransform="matrix(1 0 0 1 285.9267 -8152)">
	<stop  offset="0" style="stop-color:#F5F7FA"/>
	<stop  offset="0.6191" style="stop-color:#F3F6F9"/>
	<stop  offset="0.8418" style="stop-color:#ECF2F5"/>
	<stop  offset="0.986" style="stop-color:#E2EBF0"/>
</linearGradient>
<path class="st6" d="M734.3,537.4c17.6-0.9,31.8-20.8,31.8-45.1l1.6-223c0-24.7-14.9-45.1-32.9-45.1H633.9
	c-33.6-0.9-32.9,20.4-32.9,45.1v237c0,0.7,0,1.1,0,1.8c0.7,25.8,21.5,44.8,44.1,41.6l86.9-12.4C732.9,537.2,733.6,537.2,734.3,537.4
	z"/>
<g>
	
		<linearGradient id="SVGID_8_" gradientUnits="userSpaceOnUse" x1="402.5869" y1="8320.6982" x2="402.5869" y2="8400.876" gradientTransform="matrix(1 0 0 1 285.9267 -8152)">
		<stop  offset="0" style="stop-color:#EE9CA7"/>
		<stop  offset="0.3271" style="stop-color:#F5B6BE"/>
		<stop  offset="0.7537" style="stop-color:#FCD2D8"/>
		<stop  offset="1" style="stop-color:#FFDDE1"/>
	</linearGradient>
	<path class="st7" d="M666.1,170.2l41.6-1.4c4.6-0.2,8.7,4.3,9.2,10.3l3.4,45.8c0.2,3.4-0.7,6.9-2.7,9.2
		c-16.5,19.4-35.5,18.8-56.3,4.1c-3-2.1-4.6-5.9-4.6-10.1l0.5-46.9C657.2,175.1,661.1,170.2,666.1,170.2z"/>
</g>
<g>
	
		<linearGradient id="SVGID_9_" gradientUnits="userSpaceOnUse" x1="-3486.5151" y1="8264.3076" x2="-3350.4153" y2="8264.3076" gradientTransform="matrix(-1 0 0 1 -2734.1152 -8152)">
		<stop  offset="0" style="stop-color:#EE9CA7"/>
		<stop  offset="1.909441e-02" style="stop-color:#F0A2AC"/>
		<stop  offset="0.1053" style="stop-color:#F5B8C0"/>
		<stop  offset="0.207" style="stop-color:#FAC9CF"/>
		<stop  offset="0.333" style="stop-color:#FDD4D9"/>
		<stop  offset="0.5096" style="stop-color:#FFDBDF"/>
		<stop  offset="1" style="stop-color:#FFDDE1"/>
	</linearGradient>
	<path class="st8" d="M683.3,22.5c37.7,0,69.1,35,69.1,86.5s-30.2,93.1-67.9,93.1s-68.2-41.6-68.2-93.1
		C616.3,57.7,645.6,22.5,683.3,22.5z"/>
</g>
<g>
	
		<linearGradient id="SVGID_10_" gradientUnits="userSpaceOnUse" x1="-3732.0166" y1="8243.0801" x2="-3710.1572" y2="8243.0801" gradientTransform="matrix(-0.7828 -2.397775e-02 2.397775e-02 0.9974 -2488.3127 -8179.3223)">
		<stop  offset="0" style="stop-color:#EE9CA7"/>
		<stop  offset="0.3271" style="stop-color:#F5B6BE"/>
		<stop  offset="0.7537" style="stop-color:#FCD2D8"/>
		<stop  offset="1" style="stop-color:#FFDDE1"/>
	</linearGradient>
	<path class="st9" d="M620.9,116.9c4.6-0.5,9.2,5.7,10.1,13.7s-2.3,15.1-6.9,15.6s-9.2-5.7-10.1-13.7S616,117.6,620.9,116.9z"/>
</g>
<path class="st10" d="M690.6,44c37.7,0,69.1,27.2,69.1,67.5s-30.7,72.7-68.2,72.7c-37.7,0-68.2-32.5-68.2-72.7
	C623.4,71.4,652.9,44,690.6,44z"/>
<g>
	<path class="st10" d="M616.7,58.2c-2.3,2.3-6.2,10.8-5.3,13.7c0.7,2.5,0.2,5.3-0.9,7.5c-6.9,13.3,2.5,43.2,2.5,43.2
		c3.7,9.6,17.2,14.6,28.6,15.6c1.1,0,2.1,0.2,3.2,0.5c13.7,4.1,40.5,11,50.3,12.6c40.3,6.9,41.6-4.8,47.1-6.9
		c-0.2-0.2-0.2-0.7-0.5-0.9c2.1,0.5,3.4,0.7,3.4,0.7c32-22.4,23.8-50.8,21.7-56.3c-0.2-0.5-0.5-1.1-0.7-1.6l-3-5.7
		c-0.9-2.1-1.6-4.3-1.6-6.6c-0.5-16.7-7.1-19.7-13.3-23.3c0,0,0.2-0.2,0.2-0.5c1.6-3.2,1.4-7.3-1.1-10.5l-13.7-17.4
		c-1.6-1.8-3.7-3.2-6.2-3.7l-3.9-0.7c-8-3.7-16.5-5.3-25.8-4.3c-1.8-0.2-3.4-0.2-5,0.5c-14.6,2.1-28.4,5-36.1,12.8
		c-0.9,0.2-1.8,0.7-2.5,1.4c-10.5,3.9-19.7,9.4-27,18.1C627.3,46.3,619.9,54.7,616.7,58.2z M712.8,92.9h-0.2v-0.2L712.8,92.9z
		 M732.7,57.7c0.2,0.2,0.2,0.2,0.2,0.2c-0.2,0-0.2,0-0.5,0C732.7,57.9,732.7,57.7,732.7,57.7z"/>
</g>
<g>
	<path class="st10" d="M746.2,73.5c0,0,15.6,19.9,3,55.1c-7.1,19.7,4.1,36.6,15.3,47.8c14.2,14,22,32.7,20.8,51.9
		c-1.6,26.1-16.7,56.7-74.6,63.1c-3.7,0.5-7.5-0.7-10.5-3c-4.6-3.9-7.8-11.2-0.5-25.4c6.4-12.4,3.9-27.2-6.2-37.5
		C683.2,215,671.8,198.7,664,174c-0.2-1.4-0.7-2.7-1.1-4.1c0-0.2-0.2-0.7-0.2-0.9c1.8,0.7,3.2,0.9,3.2,0.9
		c38.4-20.6,27.9-54.2,27.9-54.2l-3.7-10.3L680,77.5c0.2-0.2,0.2-0.2,0.5-0.5c1.8-3,2.1-7.1,0-10.5l-11.7-19
		c-1.4-2.1-3.4-3.7-5.7-4.3l-3.9-1.1C686.5,38,720.8,42.4,746.2,73.5z"/>
</g>
<polygon class="st11" points="50.1,495.7 22.6,454.1 22.6,98.5 478.9,98.5 504,128.2 504,495.7 "/>
<rect x="52.3" y="132.1" class="st11" width="451.7" height="363.6"/>
<rect x="52.3" y="238.3" class="st12" width="451.7" height="17.1"/>
<linearGradient id="SVGID_11_" gradientUnits="userSpaceOnUse" x1="340.0967" y1="9968.6768" x2="355.3993" y2="9968.6768" gradientTransform="matrix(1 0 0 1 62 -9496.7695)">
	<stop  offset="0" style="stop-color:#2580C3"/>
	<stop  offset="0.31" style="stop-color:#009EE2;stop-opacity:0.9"/>
	<stop  offset="0.35" style="stop-color:#00A0E2;stop-opacity:0.85"/>
	<stop  offset="1" style="stop-color:#35A8E0;stop-opacity:0.8"/>
</linearGradient>
<circle class="st13" cx="409.4" cy="471.9" r="7.7"/>
<linearGradient id="SVGID_12_" gradientUnits="userSpaceOnUse" x1="371.1375" y1="9968.6768" x2="386.4399" y2="9968.6768" gradientTransform="matrix(1 0 0 1 62 -9496.7695)">
	<stop  offset="0" style="stop-color:#2580C3"/>
	<stop  offset="0.31" style="stop-color:#009EE2;stop-opacity:0.9"/>
	<stop  offset="0.35" style="stop-color:#00A0E2;stop-opacity:0.85"/>
	<stop  offset="1" style="stop-color:#35A8E0;stop-opacity:0.8"/>
</linearGradient>
<circle class="st14" cx="440.6" cy="471.9" r="7.7"/>
<linearGradient id="SVGID_13_" gradientUnits="userSpaceOnUse" x1="402.1639" y1="9968.6768" x2="417.4666" y2="9968.6768" gradientTransform="matrix(1 0 0 1 62 -9496.7695)">
	<stop  offset="0" style="stop-color:#2580C3"/>
	<stop  offset="0.31" style="stop-color:#009EE2;stop-opacity:0.9"/>
	<stop  offset="0.35" style="stop-color:#00A0E2;stop-opacity:0.85"/>
	<stop  offset="1" style="stop-color:#35A8E0;stop-opacity:0.8"/>
</linearGradient>
<circle class="st15" cx="471.6" cy="471.9" r="7.7"/>
<line class="st12" x1="53.2" y1="451.4" x2="501.9" y2="451.4"/>
<line class="st12" x1="53.2" y1="380.7" x2="501.9" y2="380.7"/>
<linearGradient id="SVGID_14_" gradientUnits="userSpaceOnUse" x1="15.6511" y1="9968.4277" x2="95.9288" y2="9968.4277" gradientTransform="matrix(1 0 0 1 62 -9496.7695)">
	<stop  offset="0" style="stop-color:#2580C3"/>
	<stop  offset="0.31" style="stop-color:#009EE2;stop-opacity:0.9"/>
	<stop  offset="0.35" style="stop-color:#00A0E2;stop-opacity:0.85"/>
	<stop  offset="1" style="stop-color:#35A8E0;stop-opacity:0.8"/>
</linearGradient>
<path class="st16" d="M84.1,464.5h66.7c3.7,0,6.7,3.1,6.7,6.7v0.9c0,3.7-3.1,6.7-6.7,6.7H84.1c-3.7,0-6.7-3.1-6.7-6.7v-0.9
	C77.4,467.3,80.4,464.5,84.1,464.5z"/>
<linearGradient id="SVGID_15_" gradientUnits="userSpaceOnUse" x1="20.8188" y1="9649.0771" x2="36.1213" y2="9649.0771" gradientTransform="matrix(1 0 0 1 62 -9496.7695)">
	<stop  offset="0" style="stop-color:#2580C3"/>
	<stop  offset="0.31" style="stop-color:#009EE2;stop-opacity:0.9"/>
	<stop  offset="0.35" style="stop-color:#00A0E2;stop-opacity:0.85"/>
	<stop  offset="1" style="stop-color:#35A8E0;stop-opacity:0.8"/>
</linearGradient>
<circle class="st17" cx="90.2" cy="152.3" r="7.7"/>
<linearGradient id="SVGID_16_" gradientUnits="userSpaceOnUse" x1="402.1639" y1="9649.0771" x2="417.4666" y2="9649.0771" gradientTransform="matrix(1 0 0 1 62 -9496.7695)">
	<stop  offset="0" style="stop-color:#2580C3"/>
	<stop  offset="0.31" style="stop-color:#009EE2;stop-opacity:0.9"/>
	<stop  offset="0.35" style="stop-color:#00A0E2;stop-opacity:0.85"/>
	<stop  offset="1" style="stop-color:#35A8E0;stop-opacity:0.8"/>
</linearGradient>
<circle class="st18" cx="471.6" cy="152.3" r="7.7"/>
<line class="st12" x1="53.2" y1="173.5" x2="501.9" y2="173.5"/>
<line class="st12" x1="52.3" y1="132.1" x2="22.6" y2="98.5"/>
<ellipse class="st19" cx="271.5" cy="224.3" rx="24.5" ry="24.5"/>
<linearGradient id="SVGID_17_" gradientUnits="userSpaceOnUse" x1="203.523" y1="9710.9775" x2="215.6084" y2="9710.9775" gradientTransform="matrix(1 0 0 1 62 -9496.7695)">
	<stop  offset="0" style="stop-color:#2580C3"/>
	<stop  offset="0.31" style="stop-color:#009EE2;stop-opacity:0.9"/>
	<stop  offset="0.35" style="stop-color:#00A0E2;stop-opacity:0.85"/>
	<stop  offset="1" style="stop-color:#35A8E0;stop-opacity:0.8"/>
</linearGradient>
<circle class="st20" cx="271.4" cy="214.2" r="6.1"/>
<path class="st11" d="M321.3,276.3h-83.6c-6.1,0-11.9-3.4-14.7-8.6l-11-20.5c-5.5-10.1,2.4-22.3,14.7-22.3l81.7-0.3
	c5.8,0,11.3,2.8,14.4,7.7l12.9,20.8C341.8,263.4,333.8,276.3,321.3,276.3z"/>
<path class="st11" d="M311.2,280v30c0,1.8-1.8,3.1-4,3.1h-56.6c-2.1,0-3.7-1.2-3.7-3.1v-30c0-1.8,1.8-3.1,3.7-3.1h56.9
	C309.7,276.6,311.2,278.1,311.2,280z"/>
<path class="st11" d="M472.2,395v39.8H114.1l-22.6-33.1l0.3-44.7l354.1,1.2C448.6,378.5,457.8,387.1,472.2,395z"/>
<path class="st11" d="M114.1,434.8v-40.7c0,0-18.1-6.1-22.3-37"/>
<line class="st12" x1="114.1" y1="394.1" x2="472.2" y2="394.4"/>
<path class="st11" d="M291.3,313.8c0.3,0,0.9,0.3,0.9,0.9v10.1c0,2.1-1.8,3.7-3.7,3.7h-1.2l-8.3,10.4c-0.3,0.3-0.9,0.3-1.2,0
	l-7.3-10.1c0-0.3-0.3-0.3-0.6-0.3l0,0c-2.4,0-4.6-2.1-4.6-4.6v-9.5c0-0.3,0.3-0.9,0.9-0.9h25.1L291.3,313.8L291.3,313.8z"/>
<polygon class="st21" points="70.9,173.5 70.9,450.1 53.2,450.4 53.2,173.2 "/>
<polygon class="st11" points="503.1,174.4 503.1,450.1 485.3,450.4 485.3,174.1 "/>
<path class="st22" d="M95.7,213.2L95.7,213.2c-1.8-1.5-1.8-4.3-0.3-6.1l18.4-20.5c1.5-1.8,4.3-1.8,6.1-0.3l0,0
	c1.8,1.5,1.8,4.3,0.3,6.1l-18.4,20.5C100.3,214.8,97.6,214.8,95.7,213.2z"/>
<path class="st22" d="M105.2,227L105.2,227c-1.8-1.5-1.8-4.3-0.3-6.1l29.4-32.7c1.5-1.8,4.3-1.8,6.1-0.3l0,0
	c1.8,1.5,1.8,4.3,0.3,6.1l-29.4,32.7C109.8,228.5,107.1,228.5,105.2,227z"/>
<g>
	
		<linearGradient id="SVGID_18_" gradientUnits="userSpaceOnUse" x1="225.1591" y1="353.7577" x2="257.6591" y2="353.7577" gradientTransform="matrix(1 0 0 -1 0 720.6154)">
		<stop  offset="0" style="stop-color:#2580C3"/>
		<stop  offset="0.31" style="stop-color:#009EE2;stop-opacity:0.9"/>
		<stop  offset="0.35" style="stop-color:#00A0E2;stop-opacity:0.85"/>
		<stop  offset="1" style="stop-color:#35A8E0;stop-opacity:0.8"/>
	</linearGradient>
	<path class="st23" d="M225.2,379.8v-8.9l16.8-23.5h11.5v23.2h4.2v9.2h-4.2v6.5h-10.7v-6.5H225.2z M243.5,359.6l-7.6,11h7.6V359.6z"
		/>
	
		<linearGradient id="SVGID_19_" gradientUnits="userSpaceOnUse" x1="261.8" y1="353.8577" x2="293.271" y2="353.8577" gradientTransform="matrix(1 0 0 -1 0 720.6154)">
		<stop  offset="0" style="stop-color:#2580C3"/>
		<stop  offset="0.31" style="stop-color:#009EE2;stop-opacity:0.9"/>
		<stop  offset="0.35" style="stop-color:#00A0E2;stop-opacity:0.85"/>
		<stop  offset="1" style="stop-color:#35A8E0;stop-opacity:0.8"/>
	</linearGradient>
	<path class="st24" d="M261.8,366.7c0-6,1.3-10.7,3.8-14.2s6.5-5.2,11.9-5.2s9.4,1.8,11.9,5.3c2.6,3.5,3.8,8.2,3.8,14.1
		c0,6-1.3,10.7-3.8,14.2c-2.6,3.5-6.5,5.3-11.9,5.3s-9.3-1.8-11.9-5.3C263.1,377.4,261.8,372.7,261.8,366.7z M282.8,366.7
		c0-3-0.4-5.3-1.1-6.9c-0.7-1.6-2.1-2.4-4.2-2.4s-3.5,0.8-4.2,2.4c-0.7,1.6-1.1,3.9-1.1,6.9s0.4,5.3,1.1,6.9
		c0.7,1.6,2.1,2.4,4.2,2.4s3.5-0.8,4.2-2.4S282.8,369.7,282.8,366.7z"/>
	
		<linearGradient id="SVGID_20_" gradientUnits="userSpaceOnUse" x1="297.8" y1="353.7577" x2="330.3" y2="353.7577" gradientTransform="matrix(1 0 0 -1 0 720.6154)">
		<stop  offset="0" style="stop-color:#2580C3"/>
		<stop  offset="0.31" style="stop-color:#009EE2;stop-opacity:0.9"/>
		<stop  offset="0.35" style="stop-color:#00A0E2;stop-opacity:0.85"/>
		<stop  offset="1" style="stop-color:#35A8E0;stop-opacity:0.8"/>
	</linearGradient>
	<path class="st25" d="M297.8,379.8v-8.9l16.8-23.5h11.5v23.2h4.2v9.2h-4.2v6.5h-10.7v-6.5H297.8z M316.2,359.6l-7.6,11h7.6V359.6z"
		/>
</g>
<polygon class="st26" points="485,174 485,451 69.9,451.3 69.9,173.7 "/>
<linearGradient id="SVGID_21_" gradientUnits="userSpaceOnUse" x1="3117.6057" y1="3178.1721" x2="3197.8423" y2="3178.1721" gradientTransform="matrix(-0.5252 0.851 -0.851 -0.5252 4881.9805 -794.9653)">
	<stop  offset="0" style="stop-color:#2580C3"/>
	<stop  offset="0.31" style="stop-color:#009EE2;stop-opacity:0.9"/>
	<stop  offset="0.35" style="stop-color:#00A0E2;stop-opacity:0.85"/>
	<stop  offset="1" style="stop-color:#35A8E0;stop-opacity:0.8"/>
</linearGradient>
<path class="st27" d="M542.8,198.1l-35,56.8c-1.9,3.1-6.1,4.1-9.3,2.2l-0.8-0.5c-3.1-1.9-4.1-6.1-2.2-9.3l35-56.8
	c1.9-3.1,6.1-4.1,9.3-2.2l0.8,0.5C544,190.9,544.8,195,542.8,198.1z"/>
<linearGradient id="SVGID_22_" gradientUnits="userSpaceOnUse" x1="4312.8799" y1="4637.8711" x2="4391.8896" y2="4637.8711" gradientTransform="matrix(0.1615 0.9869 0.9869 -0.1615 -4719.3252 -3385.0447)">
	<stop  offset="0" style="stop-color:#2580C3"/>
	<stop  offset="0.31" style="stop-color:#009EE2;stop-opacity:0.9"/>
	<stop  offset="0.35" style="stop-color:#00A0E2;stop-opacity:0.85"/>
	<stop  offset="1" style="stop-color:#35A8E0;stop-opacity:0.8"/>
</linearGradient>
<circle class="st28" cx="560.7" cy="161.3" r="39.5"/>
<linearGradient id="SVGID_23_" gradientUnits="userSpaceOnUse" x1="-3341.6968" y1="7946.2495" x2="-3274.262" y2="7946.2495" gradientTransform="matrix(-0.4941 -0.8678 -0.7275 0.3793 4635.8706 -5620.5635)">
	<stop  offset="0" style="stop-color:#EE9CA7"/>
	<stop  offset="1.909441e-02" style="stop-color:#F0A2AC"/>
	<stop  offset="0.1053" style="stop-color:#F5B8C0"/>
	<stop  offset="0.207" style="stop-color:#FAC9CF"/>
	<stop  offset="0.333" style="stop-color:#FDD4D9"/>
	<stop  offset="0.5096" style="stop-color:#FFDBDF"/>
	<stop  offset="1" style="stop-color:#FFDDE1"/>
</linearGradient>
<path class="st29" d="M443.7,275.5l48.3-50.1c7.8-7.9,20.9-6.8,29.3,2.5l0,0c8.5,9.3,9.1,23.5,1.3,31.4l-48.3,50.1
	C461.1,303.4,450.4,292.8,443.7,275.5z"/>
<linearGradient id="SVGID_24_" gradientUnits="userSpaceOnUse" x1="-635.8588" y1="7134.7393" x2="-568.4241" y2="7134.7393" gradientTransform="matrix(-3.233548e-02 0.9995 0.9995 3.233548e-02 -6660.2344 654.9392)">
	<stop  offset="0" style="stop-color:#EE9CA7"/>
	<stop  offset="1.909441e-02" style="stop-color:#F0A2AC"/>
	<stop  offset="0.1053" style="stop-color:#F5B8C0"/>
	<stop  offset="0.207" style="stop-color:#FAC9CF"/>
	<stop  offset="0.333" style="stop-color:#FDD4D9"/>
	<stop  offset="0.5096" style="stop-color:#FFDBDF"/>
	<stop  offset="1" style="stop-color:#FFDDE1"/>
</linearGradient>
<path class="st30" d="M545.4,296.2l-82.1,19.5c-13.1,3-26.1-4.5-29-16.8l0,0c-3-12.3,5.3-24.9,18.5-27.9l82.1-19.5
	C544.8,263.4,549.3,277.8,545.4,296.2z"/>
<linearGradient id="SVGID_25_" gradientUnits="userSpaceOnUse" x1="-3425.6587" y1="6925.5039" x2="-3349.0034" y2="6925.5039" gradientTransform="matrix(9.786130e-03 -0.9999 -0.9999 -9.786130e-03 7544.7651 -3054.2517)">
	<stop  offset="0" style="stop-color:#F5F7FA"/>
	<stop  offset="0.6191" style="stop-color:#F3F6F9"/>
	<stop  offset="0.8418" style="stop-color:#ECF2F5"/>
	<stop  offset="0.986" style="stop-color:#E2EBF0"/>
</linearGradient>
<path class="st31" d="M524,252.3l92.8-24.2c14.8-3.8,29.7,4.4,33.4,18.3l0,0c3.7,13.9-5.4,28.5-20.3,32.2l-92.8,24.2
	C525.5,289.6,520,273.3,524,252.3z"/>
</svg>
