<svg xmlns="http://www.w3.org/2000/svg" width="38" height="38" viewBox="0 0 38 38"><g><g><g><g><path fill="#fff3e0" d="M0 19C0 8.507 8.507 0 19 0s19 8.507 19 19-8.507 19-19 19S0 29.493 0 19z"/></g><g><g><path fill="none" stroke="#ff9100" stroke-linecap="round" stroke-linejoin="round" stroke-miterlimit="50" stroke-width="2" d="M28.5 25.65a1.9 1.9 0 0 1-1.9 1.9H11.4a1.9 1.9 0 0 1-1.9-1.9v-13.3c0-1.05.85-1.9 1.9-1.9h4.75v0l1.9 2.85v0h8.55c1.05 0 1.9.85 1.9 1.9z"/></g><g><path fill="none" stroke="#ff9100" stroke-linecap="round" stroke-linejoin="round" stroke-miterlimit="50" stroke-width="2" d="M16.15 20.9h5.7"/></g></g></g></g></g></svg>