<svg xmlns="http://www.w3.org/2000/svg" width="30" height="30" viewBox="0 0 30 30"><g><g><g><path fill="#e2ebfb" d="M0 15C0 6.716 6.716 0 15 0c8.284 0 15 6.716 15 15 0 8.284-6.716 15-15 15-8.284 0-15-6.716-15-15z"/></g><g><g/><g><g><path fill="#2061d1" d="M20.262 9.042l-5.597 4.521V9.85c0-.871-1.01-1.355-1.688-.807l-6.301 5.09a1.037 1.037 0 0 0 0 1.613l6.3 5.09c.678.548 1.69.064 1.69-.807v-3.714l5.596 4.52c.677.549 1.688.065 1.688-.806V9.849c0-.871-1.01-1.355-1.688-.807"/></g></g></g></g></g></svg>