<svg xmlns="http://www.w3.org/2000/svg" width="20" height="20" viewBox="0 0 20 20"><g><g><g><path fill="#fff" d="M7.806 6.161a1.646 1.646 0 1 0-3.291.002 1.646 1.646 0 0 0 3.29-.002zm2.196-3.84c6.463 0 7.681 1.218 7.681 7.658l.002.355c0 .984-.06 1.955-.166 2.792l-4.225-4.225-5.486 5.483-2.194-2.193-2.68 2.811a14.356 14.356 0 0 1-.611-5.004c0-6.456 1.219-7.675 7.68-7.675zm9.865 7.677c0-7.67-2.193-9.868-9.869-9.868C2.323.13.13 2.329.13 9.998c0 7.67 2.193 9.869 9.868 9.869 7.676 0 9.869-2.199 9.869-9.869z"/></g></g></g></svg>