<svg xmlns="http://www.w3.org/2000/svg" width="30" height="30" viewBox="0 0 30 30"><defs><clipPath id="f7z0a"><path fill="#fff" d="M0 15C0 6.716 6.716 0 15 0c8.284 0 15 6.716 15 15 0 8.284-6.716 15-15 15-8.284 0-15-6.716-15-15z"/></clipPath></defs><g><g><g><path fill="#fff" d="M0 15C0 6.716 6.716 0 15 0c8.284 0 15 6.716 15 15 0 8.284-6.716 15-15 15-8.284 0-15-6.716-15-15z"/><path fill="none" stroke="#2061d1" stroke-miterlimit="50" stroke-width="3" d="M0 15C0 6.716 6.716 0 15 0h0c8.284 0 15 6.716 15 15v0c0 8.284-6.716 15-15 15h0C6.716 30 0 23.284 0 15z" clip-path="url(&quot;#f7z0a&quot;)"/></g><g><g><path fill="#2061d1" d="M24 19.728C24 12.698 19.97 7 15 7s-9 5.698-9 12.728C6 21 8 21 8 19.728 8 18 8.984 10 15 10c6.016-.001 7 8 7 9.728 0 1.272 2 1.272 2 0z"/></g></g></g></g></svg>