<svg xmlns="http://www.w3.org/2000/svg" width="30" height="30" viewBox="0 0 30 30"><defs><clipPath id="ezm6a"><path fill="#fff" d="M0 15C0 6.716 6.716 0 15 0c8.284 0 15 6.716 15 15 0 8.284-6.716 15-15 15-8.284 0-15-6.716-15-15z"/></clipPath></defs><g><g transform="matrix(-1 0 0 1 30 0)"><g><path fill="#fff" d="M0 15C0 6.716 6.716 0 15 0c8.284 0 15 6.716 15 15 0 8.284-6.716 15-15 15-8.284 0-15-6.716-15-15z"/><path fill="none" stroke="#2061d1" stroke-miterlimit="50" stroke-width="3" d="M0 15C0 6.716 6.716 0 15 0h0c8.284 0 15 6.716 15 15v0c0 8.284-6.716 15-15 15h0C6.716 30 0 23.284 0 15z" clip-path="url(&quot;#ezm6a&quot;)"/></g><g><path fill="#fff" d="M24 19.728C24 12.698 19.97 7 15 7s-9 5.698-9 12.728C6 21 8 21 8 19.728 8 18 8.984 10 15 10c6.016-.001 7 8 7 9.728 0 1.272 2 1.272 2 0z"/></g><g><g/><g><path fill="#2061d1" d="M23.56 8.377c-.804-1.21-1.831-1.877-2.892-1.877-1.06 0-2.087.667-2.891 1.877-.324.489-.704 1.598-.78 1.598-.08 0-.456-1.11-.78-1.597-.804-1.211-1.83-1.878-2.891-1.878s-2.088.667-2.892 1.877c-.71 1.07-1.134 2.42-1.134 3.61 0 1.095.364 1.806 1.112 2.174.69.34 1.614.34 2.661.339h.75c.946 0 1.78-.026 2.416-.339.324-.16.65-.676.758-.676.107 0 .434.517.758.676.69.34 1.614.34 2.66.339h.751c.945 0 1.78-.026 2.415-.339.75-.369 1.113-1.08 1.113-2.173 0-1.19-.424-2.54-1.135-3.61z"/></g><g><path fill="#2061d1" d="M19.56 21.622c-.804 1.211-1.831 1.878-2.892 1.878-1.06 0-2.087-.667-2.891-1.877-.324-.489-.704-1.598-.78-1.598-.08 0-.456 1.11-.78 1.598-.804 1.21-1.83 1.877-2.891 1.877s-2.088-.667-2.892-1.877c-.71-1.07-1.134-2.42-1.134-3.61 0-1.095.364-1.806 1.112-2.174.69-.34 1.614-.34 2.661-.339h.75c.946 0 1.78.026 2.416.339.324.16.65.676.758.676.107 0 .434-.517.758-.676.69-.34 1.614-.34 2.66-.339h.751c.945 0 1.78.026 2.415.339.75.369 1.113 1.08 1.113 2.173 0 1.19-.424 2.54-1.135 3.61z"/></g></g></g></g></svg>