<svg xmlns="http://www.w3.org/2000/svg" width="30" height="30" viewBox="0 0 30 30"><g><g><g><path fill="#e2ebfb" d="M0 15C0 6.716 6.716 0 15 0c8.284 0 15 6.716 15 15 0 8.284-6.716 15-15 15-8.284 0-15-6.716-15-15z"/></g><g><g/><g><g><path fill="#2061d1" d="M19.895 9.042l-6.3 5.09a1.037 1.037 0 0 0 0 1.613l6.3 5.09a1.037 1.037 0 0 0 1.69-.807V9.849c0-.871-1.011-1.355-1.69-.807"/></g><g><path fill="#2061d1" d="M11.033 21.065H9.671a1.02 1.02 0 0 1-1.021-1.021V9.831A1.02 1.02 0 0 1 9.671 8.81h1.362a1.02 1.02 0 0 1 1.021 1.021v10.213a1.02 1.02 0 0 1-1.021 1.021"/></g></g></g></g></g></svg>