<?xml version="1.0" encoding="UTF-8" standalone="no"?>
<!-- Generator: Adobe Illustrator 19.0.0, SVG Export Plug-In . SVG Version: 6.00 Build 0)  -->

<svg
   xmlns:dc="http://purl.org/dc/elements/1.1/"
   xmlns:cc="http://creativecommons.org/ns#"
   xmlns:rdf="http://www.w3.org/1999/02/22-rdf-syntax-ns#"
   xmlns:svg="http://www.w3.org/2000/svg"
   xmlns="http://www.w3.org/2000/svg"
   xmlns:sodipodi="http://sodipodi.sourceforge.net/DTD/sodipodi-0.dtd"
   xmlns:inkscape="http://www.inkscape.org/namespaces/inkscape"
   version="1.1"
   id="Capa_1"
   x="0px"
   y="0px"
   viewBox="0 0 614.3976 614.3976"
   xml:space="preserve"
   sodipodi:docname="scissors.svg"
   inkscape:version="0.92.4 (5da689c313, 2019-01-14)"
   width="614.39758"
   height="614.39758"><metadata
   id="metadata874"><rdf:RDF><cc:Work
       rdf:about=""><dc:format>image/svg+xml</dc:format><dc:type
         rdf:resource="http://purl.org/dc/dcmitype/StillImage" /><dc:title></dc:title></cc:Work></rdf:RDF></metadata><defs
   id="defs872" /><sodipodi:namedview
   pagecolor="#ffffff"
   bordercolor="#666666"
   borderopacity="1"
   objecttolerance="10"
   gridtolerance="10"
   guidetolerance="10"
   inkscape:pageopacity="0"
   inkscape:pageshadow="2"
   inkscape:window-width="2560"
   inkscape:window-height="1537"
   id="namedview870"
   showgrid="false"
   inkscape:zoom="1.3085989"
   inkscape:cx="413.78014"
   inkscape:cy="236.61125"
   inkscape:window-x="-8"
   inkscape:window-y="-8"
   inkscape:window-maximized="1"
   inkscape:current-layer="Capa_1"
   fit-margin-top="0"
   fit-margin-left="0"
   fit-margin-right="0"
   fit-margin-bottom="0" />




<g
   id="g839"
   transform="translate(74.125093,-16.811864)">
</g>
<g
   id="g841"
   transform="translate(74.125093,-16.811864)">
</g>
<g
   id="g843"
   transform="translate(74.125093,-16.811864)">
</g>
<g
   id="g845"
   transform="translate(74.125093,-16.811864)">
</g>
<g
   id="g847"
   transform="translate(74.125093,-16.811864)">
</g>
<g
   id="g849"
   transform="translate(74.125093,-16.811864)">
</g>
<g
   id="g851"
   transform="translate(74.125093,-16.811864)">
</g>
<g
   id="g853"
   transform="translate(74.125093,-16.811864)">
</g>
<g
   id="g855"
   transform="translate(74.125093,-16.811864)">
</g>
<g
   id="g857"
   transform="translate(74.125093,-16.811864)">
</g>
<g
   id="g859"
   transform="translate(74.125093,-16.811864)">
</g>
<g
   id="g861"
   transform="translate(74.125093,-16.811864)">
</g>
<g
   id="g863"
   transform="translate(74.125093,-16.811864)">
</g>
<g
   id="g865"
   transform="translate(74.125093,-16.811864)">
</g>
<g
   id="g867"
   transform="translate(74.125093,-16.811864)">
</g>
<path
   style="fill:#4e71ad;fill-opacity:0.16949153;stroke:none;stroke-width:1.00157475;stroke-miterlimit:4;stroke-dasharray:none;stroke-opacity:1"
   id="path876"
   sodipodi:type="arc"
   sodipodi:cx="307.19879"
   sodipodi:cy="307.19879"
   sodipodi:rx="307.19879"
   sodipodi:ry="307.19879"
   sodipodi:start="0"
   sodipodi:end="6.2831504"
   sodipodi:open="true"
   d="M 614.39758,307.19879 A 307.19879,307.19879 0 0 1 307.20147,614.39758 307.19879,307.19879 0 0 1 4.679066e-8,307.20415 307.19879,307.19879 0 0 1 307.19075,1.0527896e-7 307.19879,307.19879 0 0 1 614.39758,307.18807" /><g
   transform="matrix(0.84626633,0,0,0.84626633,89.409239,87.116249)"
   id="g819"
   style="fill:#4e71ad;fill-opacity:0.62288135"><g
     id="g817"
     style="fill:#4e71ad;fill-opacity:0.62288135"><path
       d="m 106.342,266.716 c -6.611,-6.61 -15.4,-10.251 -24.749,-10.251 -9.349,0 -18.138,3.641 -24.748,10.251 -6.611,6.61 -10.252,15.399 -10.252,24.748 0,9.349 3.641,18.139 10.251,24.748 6.61,6.611 15.4,10.251 24.749,10.251 9.349,0 18.138,-3.641 24.748,-10.251 6.61,-6.61 10.251,-15.399 10.251,-24.749 0,-9.349 -3.641,-18.138 -10.25,-24.747 z m -14.143,35.355 c -2.833,2.833 -6.6,4.393 -10.606,4.393 -4.006,0 -7.773,-1.56 -10.607,-4.394 -2.833,-2.832 -4.393,-6.599 -4.393,-10.605 0,-4.006 1.56,-7.772 4.394,-10.606 2.833,-2.833 6.6,-4.394 10.606,-4.394 4.006,0 7.773,1.56 10.606,4.394 2.833,2.832 4.393,6.599 4.393,10.605 0,4.007 -1.56,7.773 -4.393,10.607 z"
       id="path815"
       inkscape:connector-curvature="0"
       style="fill:#4e71ad;fill-opacity:0.62288135" /></g></g><g
   transform="matrix(0.84626633,0,0,0.84626633,89.409239,87.116249)"
   id="g825"
   style="fill:#4e71ad;fill-opacity:0.62288135"><g
     id="g823"
     style="fill:#4e71ad;fill-opacity:0.62288135"><path
       d="m 509.015,133.452 c -2.598,-2.561 -6.386,-3.505 -9.882,-2.461 l -168.392,50.26 50.261,-168.392 c 1.044,-3.496 0.101,-7.283 -2.462,-9.881 -2.561,-2.597 -6.331,-3.593 -9.846,-2.601 l -43.658,12.366 c -2.838,0.804 -5.176,2.819 -6.389,5.508 L 231.738,210.8 143.065,237.266 C 122.42,212.728 89.093,202.535 57.889,211.851 15.06,224.635 -9.385,269.879 3.398,312.709 c 10.484,35.126 42.802,57.886 77.716,57.886 7.657,0 15.439,-1.095 23.143,-3.394 29.942,-8.937 51.731,-34.055 56.782,-64.247 l 43.711,4.289 4.289,43.71 c -30.192,5.05 -55.311,26.839 -64.249,56.782 -12.783,42.83 11.663,88.075 54.492,100.858 7.569,2.259 15.379,3.405 23.212,3.405 17.091,0 34.128,-5.596 47.974,-15.756 14.32,-10.508 24.581,-25.08 29.673,-42.14 9.313,-31.204 -0.878,-64.531 -25.416,-85.176 l 26.466,-88.672 192.551,-86.909 c 2.688,-1.213 4.703,-3.551 5.507,-6.389 l 12.366,-43.657 c 0.995,-3.512 -0.002,-7.284 -2.6,-9.847 z m -306.12,141.25 c -0.72,1.594 -1.009,3.349 -0.838,5.09 l 0.702,7.158 -49.673,-4.872 c -2.749,-0.268 -5.485,0.609 -7.563,2.427 -2.078,1.818 -3.311,4.414 -3.408,7.173 -0.921,26.205 -18.434,48.854 -43.578,56.358 -32.266,9.629 -66.346,-8.786 -75.975,-41.047 -9.628,-32.263 8.785,-66.344 41.048,-75.974 25.29,-7.549 52.427,1.906 67.527,23.526 2.47,3.535 6.929,5.088 11.058,3.855 l 78.656,-23.477 z m 50.699,95.094 c -1.233,4.131 0.321,8.588 3.856,11.057 21.62,15.102 31.075,42.24 23.527,67.528 -7.665,25.68 -31.714,43.616 -58.483,43.616 -5.895,0 -11.78,-0.865 -17.492,-2.569 -32.262,-9.629 -50.676,-43.711 -41.047,-75.974 7.505,-25.145 30.154,-42.658 56.359,-43.579 2.759,-0.097 5.356,-1.33 7.174,-3.408 0.972,-1.11 1.665,-2.411 2.068,-3.798 0.146,-0.29 0.284,-0.585 0.404,-0.893 l 23.889,-61.474 c 2,-5.148 -0.551,-10.942 -5.699,-12.943 -5.149,-2.003 -10.943,0.551 -12.943,5.699 l -9.383,24.145 -3.601,-36.707 112.74,-249.779 21.669,-6.138 z m 227.68,-192.767 -172.514,77.866 15.142,-50.731 163.51,-48.802 z"
       id="path821"
       inkscape:connector-curvature="0"
       style="fill:#4e71ad;fill-opacity:0.62288135" /></g></g><g
   transform="matrix(0.84626633,0,0,0.84626633,89.409239,87.116249)"
   id="g831"
   style="fill:#4e71ad;fill-opacity:0.62288135"><g
     id="g829"
     style="fill:#4e71ad;fill-opacity:0.62288135"><path
       d="m 247.206,406.197 c -6.61,-6.61 -15.399,-10.25 -24.748,-10.25 -9.349,0 -18.138,3.64 -24.748,10.251 -6.611,6.61 -10.251,15.399 -10.251,24.748 0,9.349 3.64,18.138 10.251,24.748 6.61,6.611 15.399,10.251 24.748,10.251 9.349,0 18.138,-3.64 24.749,-10.251 13.645,-13.646 13.645,-35.85 -0.001,-49.497 z m -14.14,35.355 c -2.834,2.833 -6.601,4.394 -10.607,4.394 -4.006,0 -7.773,-1.561 -10.607,-4.393 -2.832,-2.833 -4.393,-6.6 -4.393,-10.606 0,-4.006 1.561,-7.773 4.393,-10.606 2.833,-2.833 6.6,-4.393 10.607,-4.393 4.007,0 7.774,1.56 10.607,4.393 5.847,5.847 5.847,15.363 0,21.211 z"
       id="path827"
       inkscape:connector-curvature="0"
       style="fill:#4e71ad;fill-opacity:0.62288135" /></g></g></svg>